# xmcd CD database file
#
# Track frame offsets:
#	187
#	3960
#	18850
#	36462
#	55310
#	78915
#	97412
#	118055
#	146137
#	169120
#	190125
#	209540
#	236750
#
# Disc length: 3260 seconds
#
# Revision: 0
# Processed by: cddbd v1.5PL3 Copyright (c) Steve Scherf et al.
# Submitted via: CDex 1.51
#
DISCID=b70cba0d
DTITLE=Pan Pan House - Stay Gold
DYEAR=1991
DGENRE=JPop
TTITLE0=朝陽と海
TTITLE1=BATTLE
TTITLE2=Special Power
TTITLE3=口笛の帰り道
TTITLE4=ぬけだしたい
TTITLE5=MOON
TTITLE6=One Day Story
TTITLE7=南風に乗った勇士
TTITLE8=この街で生きていく
TTITLE9=LAI LAI LAI　〜風
TTITLE10=黄金の光
TTITLE11=MEW
TTITLE12=朝陽と海(Reprise)
EXTD=YEAR: 1991
EXTT0=
EXTT1=
EXTT2=
EXTT3=
EXTT4=
EXTT5=
EXTT6=
EXTT7=
EXTT8=
EXTT9=
EXTT10=
EXTT11=
EXTT12=
PLAYORDER=
